# xmcd
#
# Track frame offsets: 
#        150
#        10989
#        22357
#        33909
#        44164
#        53851
#        64129
#        75091
#        84496
#        101050
#        113384
#        123488
#        134054
#        147728
#        158684
#        188042
#
# Disc length: 2827 seconds
#
# Revision: 0
# Processed by: cddbd v1.5.2PL0 Copyright (c) Steve Scherf et al.
# Submitted via: ExactAudioCopy v1.1
#
DISCID=dd0b0910
DTITLE=David Price - 100% Texan
DYEAR=2000
DGENRE=Country
TTITLE0=Dang These Texas Honky Tonks
TTITLE1=Spurrin' The Chrome Off The Barstool
TTITLE2=Big Time Bertha
TTITLE3=Brand New Day
TTITLE4=Hill Country Heaven
TTITLE5=I Love Texas More Than You
TTITLE6=Last Of The Cowboys
TTITLE7=One Last Time
TTITLE8=Rodeo Fever
TTITLE9=They Don't Play Country Music
TTITLE10=Till They Close Every Honky Tonk
TTITLE11=Unsung Hero Of The Honky Tonks
TTITLE12=White Lace And Levis
TTITLE13=You Didn't Have A Heart
TTITLE14=Remember The Alamo
TTITLE15=DATA
EXTD=
EXTT0=
EXTT1=
EXTT2=
EXTT3=
EXTT4=
EXTT5=
EXTT6=
EXTT7=
EXTT8=
EXTT9=
EXTT10=
EXTT11=
EXTT12=
EXTT13=
EXTT14=
EXTT15=
PLAYORDER=
